<?xml version="1.0" encoding="UTF-8" standalone="no"?><!DOCTYPE svg PUBLIC "-//W3C//DTD SVG 1.1//EN" "http://www.w3.org/Graphics/SVG/1.1/DTD/svg11.dtd"><svg width="100%" height="100%" viewBox="0 0 513 696" version="1.1" xmlns="http://www.w3.org/2000/svg" xmlns:xlink="http://www.w3.org/1999/xlink" xml:space="preserve" xmlns:serif="http://www.serif.com/" style="fill-rule:evenodd;clip-rule:evenodd;stroke-linejoin:round;stroke-miterlimit:1.41421;"><g><path d="M71.939,104.621l0,-104.621l71.438,74.738l0,-68.077l14.783,0l0,103.924l-71.439,-74.549l0,68.585l-14.782,0Z" style="fill:#d02834;fill-rule:nonzero;"/><path d="M248.686,20.556l-39.273,0l0,23.538l38.13,0l0,13.894l-38.13,0l0,32.738l39.273,0l0,13.895l-54.056,0l0,-97.96l54.056,0l0,13.895Z" style="fill:#d02834;fill-rule:nonzero;"/><path d="M285.913,6.661l25.506,65.476l26.647,-70.234l25.505,70.234l27.09,-65.476l16.052,0l-43.777,104.177l-25.188,-69.409l-26.266,69.473l-41.619,-104.241l16.05,0Z" style="fill:#d02834;fill-rule:nonzero;"/><path d="M63.229,201.022l-34.134,0l0,23.538l32.928,0l0,13.894l-32.928,0l0,46.633l-14.782,0l0,-97.959l48.916,0l0,13.894Z" style="fill:#d02834;fill-rule:nonzero;"/><path d="M108.137,232.11l4.695,0c14,0 21,-5.351 21,-16.052c0,-10.024 -6.809,-15.036 -20.429,-15.036l-5.266,0l0,31.088Zm18.399,11.23l30.327,41.747l-18.083,0l-27.978,-40.098l-2.665,0l0,40.098l-14.782,0l0,-97.959l17.32,0c12.942,0 22.29,2.431 28.042,7.296c6.345,5.414 9.518,12.562 9.518,21.444c0,6.937 -1.989,12.901 -5.964,17.891c-3.977,4.992 -9.221,8.185 -15.735,9.581Z" style="fill:#d02834;fill-rule:nonzero;"/><path d="M192.381,235.853c0,10.828 3.638,19.732 10.913,26.711c7.233,6.979 15.586,10.468 25.061,10.468c10.278,0 18.949,-3.553 26.012,-10.659c7.064,-7.19 10.595,-15.946 10.595,-26.266c0,-10.447 -3.489,-19.202 -10.468,-26.266c-6.936,-7.106 -15.523,-10.659 -25.758,-10.659c-10.194,0 -18.801,3.553 -25.823,10.659c-7.021,7.021 -10.532,15.692 -10.532,26.012Zm-14.909,-0.19c0,-13.789 5.055,-25.632 15.163,-35.529c10.066,-9.898 22.164,-14.847 36.291,-14.847c13.958,0 25.928,4.992 35.91,14.973c10.024,9.982 15.036,21.974 15.036,35.974c0,14.085 -5.033,26.034 -15.099,35.846c-10.11,9.856 -22.312,14.783 -36.609,14.783c-12.646,0 -24.003,-4.377 -34.07,-13.133c-11.081,-9.686 -16.622,-22.375 -16.622,-38.067Z" style="fill:#d02834;fill-rule:nonzero;"/><path d="M311.453,285.087l0,-104.621l71.44,74.738l0,-68.076l14.783,0l0,103.923l-71.439,-74.548l0,68.584l-14.784,0Z" style="fill:#d02834;fill-rule:nonzero;"/><path d="M461.17,201.022l0,84.065l-14.783,0l0,-84.065l-22.523,0l0,-13.894l59.765,0l0,13.894l-22.459,0Z" style="fill:#d02834;fill-rule:nonzero;"/><path d="M44.054,448.049l6.662,0c6.64,0 12.16,-0.698 16.559,-2.094c4.399,-1.48 8.375,-3.828 11.927,-7.042c7.276,-6.641 10.913,-15.291 10.913,-25.949c0,-10.744 -3.595,-19.457 -10.786,-26.14c-6.471,-5.963 -16.009,-8.945 -28.613,-8.945l-6.662,0l0,70.17Zm-14.783,13.894l0,-97.959l20.556,0c9.856,0 17.638,0.973 23.348,2.919c6.133,1.903 11.695,5.139 16.687,9.707c10.108,9.22 15.163,21.338 15.163,36.354c0,15.057 -5.266,27.239 -15.798,36.544c-5.287,4.653 -10.828,7.888 -16.623,9.707c-5.414,1.819 -13.091,2.728 -23.031,2.728l-20.302,0Z" style="fill:#d02834;fill-rule:nonzero;"/><path d="M146.63,412.71c0,10.828 3.638,19.731 10.913,26.71c7.233,6.979 15.586,10.469 25.061,10.469c10.278,0 18.949,-3.553 26.012,-10.659c7.064,-7.191 10.595,-15.946 10.595,-26.266c0,-10.448 -3.489,-19.203 -10.468,-26.267c-6.936,-7.105 -15.523,-10.658 -25.758,-10.658c-10.194,0 -18.801,3.553 -25.823,10.658c-7.021,7.021 -10.532,15.692 -10.532,26.013Zm-14.909,-0.19c0,-13.789 5.055,-25.632 15.163,-35.53c10.066,-9.897 22.164,-14.846 36.291,-14.846c13.958,0 25.928,4.991 35.909,14.973c10.025,9.982 15.037,21.974 15.037,35.974c0,14.085 -5.033,26.033 -15.099,35.846c-10.11,9.855 -22.312,14.783 -36.609,14.783c-12.646,0 -24.003,-4.378 -34.07,-13.133c-11.081,-9.686 -16.622,-22.375 -16.622,-38.067Z" style="fill:#d02834;fill-rule:nonzero;"/><path d="M275.731,412.71c0,10.828 3.637,19.731 10.912,26.71c7.233,6.979 15.587,10.469 25.061,10.469c10.278,0 18.949,-3.553 26.012,-10.659c7.063,-7.191 10.596,-15.946 10.596,-26.266c0,-10.448 -3.49,-19.203 -10.469,-26.267c-6.937,-7.105 -15.522,-10.658 -25.759,-10.658c-10.193,0 -18.801,3.553 -25.822,10.658c-7.022,7.021 -10.531,15.692 -10.531,26.013Zm-14.91,-0.19c0,-13.789 5.054,-25.632 15.164,-35.53c10.066,-9.897 22.163,-14.846 36.29,-14.846c13.958,0 25.927,4.991 35.91,14.973c10.024,9.982 15.036,21.974 15.036,35.974c0,14.085 -5.033,26.033 -15.1,35.846c-10.108,9.855 -22.311,14.783 -36.607,14.783c-12.648,0 -24.004,-4.378 -34.071,-13.133c-11.081,-9.686 -16.622,-22.375 -16.622,-38.067Z" style="fill:#d02834;fill-rule:nonzero;"/><path d="M409.585,408.967l4.695,0c14,0 21,-5.351 21,-16.052c0,-10.024 -6.809,-15.036 -20.428,-15.036l-5.267,0l0,31.088Zm18.4,11.229l30.327,41.747l-18.082,0l-27.98,-40.097l-2.665,0l0,40.097l-14.782,0l0,-97.959l17.32,0c12.943,0 22.29,2.432 28.043,7.296c6.345,5.414 9.517,12.562 9.517,21.445c0,6.936 -1.988,12.9 -5.964,17.891c-3.976,4.991 -9.221,8.185 -15.734,9.58Z" style="fill:#d02834;fill-rule:nonzero;"/><path d="M8.453,571.815l-2.669,0l0,-21.486l-5.784,0l0,-2.479l14.304,0l0,2.479l-5.851,0l0,21.486Z" style="fill:#d02834;fill-rule:nonzero;"/><path d="M42.592,557.576l0,-9.726l2.67,0l0,23.965l-2.67,0l0,-11.76l-12.27,0l0,11.76l-2.668,0l0,-23.965l2.668,0l0,9.726l12.27,0Z" style="fill:#d02834;fill-rule:nonzero;"/><path d="M60.709,547.85l12.429,0l0,2.479l-9.759,0l0,7.12l9.471,0l0,2.479l-9.471,0l0,9.408l9.759,0l0,2.479l-12.429,0l0,-23.965Z" style="fill:#d02834;fill-rule:nonzero;"/><path d="M126.727,553.094c-1.906,-1.97 -4.545,-3.178 -7.31,-3.178c-5.341,0 -9.664,4.64 -9.664,9.917c0,5.276 4.357,9.917 9.727,9.917c2.702,0 5.341,-1.272 7.247,-3.179l0,3.305c-2.066,1.494 -4.61,2.353 -7.153,2.353c-6.768,0 -12.49,-5.499 -12.49,-12.301c0,-6.865 5.626,-12.491 12.49,-12.491c2.672,0 5.023,0.763 7.153,2.352l0,3.305Z" style="fill:#d02834;fill-rule:nonzero;"/><path d="M156.796,557.576l0,-9.726l2.67,0l0,23.965l-2.67,0l0,-11.76l-12.269,0l0,11.76l-2.669,0l0,-23.965l2.669,0l0,9.726l12.269,0Z" style="fill:#d02834;fill-rule:nonzero;"/><path d="M177.521,562.121c0,1.78 -0.064,3.814 1.05,5.34c1.048,1.462 3.083,2.289 4.832,2.289c1.714,0 3.589,-0.795 4.703,-2.13c1.27,-1.526 1.175,-3.624 1.175,-5.499l0,-14.271l2.669,0l0,15.002c0,2.607 -0.19,4.673 -2.097,6.643c-1.652,1.78 -4.035,2.734 -6.45,2.734c-2.258,0 -4.579,-0.859 -6.201,-2.448c-2.096,-2.002 -2.35,-4.195 -2.35,-6.929l0,-15.002l2.669,0l0,14.271Z" style="fill:#d02834;fill-rule:nonzero;"/><path d="M209.847,558.943l0.825,0c3.02,0 6.071,-0.572 6.071,-4.291c0,-3.942 -2.892,-4.323 -6.102,-4.323l-0.794,0l0,8.614Zm0,12.872l-2.67,0l0,-23.965l3.464,0c4.545,0 8.772,1.208 8.772,6.611c0,3.687 -2.319,6.294 -6.008,6.611l7.628,10.743l-3.273,0l-7.247,-10.52l-0.666,0l0,10.52Z" style="fill:#d02834;fill-rule:nonzero;"/><path d="M253.169,553.094c-1.906,-1.97 -4.545,-3.178 -7.309,-3.178c-5.341,0 -9.664,4.64 -9.664,9.917c0,5.276 4.356,9.917 9.726,9.917c2.702,0 5.341,-1.272 7.247,-3.179l0,3.305c-2.065,1.494 -4.608,2.353 -7.152,2.353c-6.769,0 -12.49,-5.499 -12.49,-12.301c0,-6.865 5.627,-12.491 12.49,-12.491c2.672,0 5.022,0.763 7.152,2.352l0,3.305Z" style="fill:#d02834;fill-rule:nonzero;"/><path d="M283.237,557.576l0,-9.726l2.671,0l0,23.965l-2.671,0l0,-11.76l-12.268,0l0,11.76l-2.669,0l0,-23.965l2.669,0l0,9.726l12.268,0Z" style="fill:#d02834;fill-rule:nonzero;"/><rect x="321.7" y="547.85" width="2.669" height="23.965" style="fill:#d02834;fill-rule:nonzero;"/><path d="M346.077,571.815l-2.67,0l0,-21.486l-5.783,0l0,-2.479l14.304,0l0,2.479l-5.851,0l0,21.486Z" style="fill:#d02834;fill-rule:nonzero;"/><path d="M407.709,559.769c0.065,3.242 -0.285,5.912 -2.478,8.455c-2.195,2.543 -5.533,4.005 -8.868,4.005c-6.738,0 -12.334,-5.595 -12.334,-12.333c0,-6.866 5.596,-12.459 12.492,-12.459c4.196,0 7.596,1.875 10.139,5.181l-1.939,1.811c-2.001,-2.828 -4.703,-4.513 -8.232,-4.513c-5.467,0 -9.79,4.609 -9.79,10.012c0,2.542 1.018,4.958 2.798,6.77c1.748,1.748 4.291,3.052 6.802,3.052c4.163,0 8.551,-3.052 8.551,-7.502l-7.121,0l0,-2.479l9.98,0Z" style="fill:#d02834;fill-rule:nonzero;"/><path d="M424.589,562.121c0,1.78 -0.064,3.814 1.047,5.34c1.05,1.462 3.084,2.289 4.832,2.289c1.716,0 3.593,-0.795 4.704,-2.13c1.273,-1.526 1.178,-3.624 1.178,-5.499l0,-14.271l2.669,0l0,15.002c0,2.607 -0.191,4.673 -2.099,6.643c-1.653,1.78 -4.037,2.734 -6.452,2.734c-2.255,0 -4.577,-0.859 -6.197,-2.448c-2.099,-2.002 -2.354,-4.195 -2.354,-6.929l0,-15.002l2.672,0l0,14.271Z" style="fill:#d02834;fill-rule:nonzero;"/><rect x="454.308" y="547.85" width="2.669" height="23.965" style="fill:#d02834;fill-rule:nonzero;"/><path d="M474.999,569.336l6.612,0l0,2.479l-9.282,0l0,-23.965l2.67,0l0,21.486Z" style="fill:#d02834;fill-rule:nonzero;"/><path d="M499.347,569.336c2.925,0 5.372,-0.413 7.566,-2.479c1.97,-1.844 2.986,-4.354 2.986,-7.024c0,-2.734 -1.047,-5.372 -3.115,-7.184c-2.193,-1.939 -4.608,-2.32 -7.437,-2.32l-1.939,0l0,19.007l1.939,0Zm-4.609,-21.486l4.514,0c3.593,0 6.517,0.477 9.345,2.892c2.734,2.352 3.974,5.563 3.974,9.122c0,3.497 -1.273,6.58 -3.912,8.932c-2.859,2.542 -5.719,3.019 -9.471,3.019l-4.45,0l0,-23.965Z" style="fill:#d02834;fill-rule:nonzero;"/><path d="M295.347,695.051l-0.048,-12.193l-6.934,0l-0.012,12.051l-21.966,0.022l0,-28.825c0,-2.586 2.097,-4.683 4.683,-4.683c2.584,0 4.682,2.097 4.682,4.683l0,19.451l3.245,-0.003l0.013,-12.062l25.617,0l0.048,12.128l3.589,-0.026l0,-20.768c0,-2.586 2.097,-4.683 4.682,-4.683c2.586,0 4.683,2.097 4.683,4.683l0,30.067l-22.282,0.158Z" style="fill:#d02834;fill-rule:nonzero;"/><path d="M178.796,645.249c-4.403,0 -8.806,1.678 -12.154,5.034c-3.239,3.247 -5.02,7.56 -5.015,12.146c0.006,4.586 1.797,8.896 5.043,12.135c3.242,3.234 7.548,5.015 12.126,5.015c0.007,0 0.014,0 0.021,0c4.586,-0.006 8.895,-1.797 12.134,-5.043c3.239,-3.247 5.02,-7.56 5.015,-12.147c-0.006,-4.586 -1.797,-8.895 -5.043,-12.134c-3.346,-3.338 -7.737,-5.006 -12.127,-5.006Zm-0.001,43.695c-7.075,0 -13.728,-2.752 -18.739,-7.75c-5.018,-5.006 -7.785,-11.666 -7.794,-18.753c-0.008,-7.088 2.744,-13.755 7.751,-18.772c10.333,-10.357 27.167,-10.377 37.523,-0.044c5.019,5.006 7.786,11.666 7.794,18.754c0.009,7.087 -2.744,13.754 -7.75,18.771c-5.005,5.018 -11.665,7.785 -18.753,7.794c-0.01,0 -0.021,0 -0.032,0Z" style="fill:#d02834;fill-rule:nonzero;"/><rect x="197.806" y="657.648" width="131.542" height="9.365" style="fill:#d02834;fill-rule:nonzero;"/></g></svg>