<?xml version="1.0" encoding="UTF-8" standalone="no"?><!DOCTYPE svg PUBLIC "-//W3C//DTD SVG 1.1//EN" "http://www.w3.org/Graphics/SVG/1.1/DTD/svg11.dtd"><svg width="100%" height="100%" viewBox="0 0 1467 1855" version="1.1" xmlns="http://www.w3.org/2000/svg" xmlns:xlink="http://www.w3.org/1999/xlink" xml:space="preserve" xmlns:serif="http://www.serif.com/" style="fill-rule:evenodd;clip-rule:evenodd;stroke-linejoin:round;stroke-miterlimit:1.41421;"><path d="M180.081,326.941l0,-326.941l223.247,233.556l0,-212.737l46.197,0l0,324.756l-223.25,-232.959l0,214.325l-46.194,0Z" style="fill:#d02834;fill-rule:nonzero;"/><path d="M732.416,64.238l-122.725,0l0,73.556l119.156,0l0,43.422l-119.156,0l0,102.303l122.725,0l0,43.422l-168.922,0l0,-306.122l168.922,0l0,43.419Z" style="fill:#d02834;fill-rule:nonzero;"/><path d="M848.753,20.819l79.706,204.609l83.269,-219.481l79.703,219.481l84.66,-204.609l50.162,0l-136.806,325.55l-78.71,-216.903l-82.084,217.103l-130.059,-325.75l50.159,0Z" style="fill:#d02834;fill-rule:nonzero;"/><path d="M152.862,628.194l-106.668,0l0,73.556l102.9,0l0,43.422l-102.9,0l0,145.722l-46.194,0l0,-306.122l152.862,0l0,43.422Z" style="fill:#d02834;fill-rule:nonzero;"/><path d="M293.2,725.344l14.675,0c43.75,0 65.625,-16.722 65.625,-50.163c0,-31.325 -21.281,-46.987 -63.844,-46.987l-16.456,0l0,97.15Zm57.5,35.09l94.769,130.46l-56.507,0l-87.434,-125.3l-8.328,0l0,125.3l-46.194,0l0,-306.122l54.128,0c40.444,0 69.657,7.6 87.628,22.8c19.829,16.919 29.744,39.259 29.744,67.016c0,21.678 -6.212,40.312 -18.637,55.909c-12.425,15.597 -28.813,25.578 -49.169,29.937Z" style="fill:#d02834;fill-rule:nonzero;"/><path d="M556.466,737.041c0,33.837 11.365,61.659 34.103,83.472c22.6,21.806 48.706,32.712 78.312,32.712c32.122,0 59.216,-11.103 81.291,-33.306c22.072,-22.472 33.109,-49.835 33.109,-82.085c0,-32.646 -10.906,-60.006 -32.712,-82.084c-21.678,-22.203 -48.516,-33.306 -80.497,-33.306c-31.853,0 -58.753,11.103 -80.694,33.306c-21.944,21.944 -32.912,49.041 -32.912,81.291Zm-46.594,-0.594c0,-43.088 15.797,-80.1 47.384,-111.031c31.46,-30.928 69.266,-46.391 113.41,-46.391c43.618,0 81.025,15.597 112.221,46.788c31.322,31.197 46.988,68.668 46.988,112.418c0,44.016 -15.728,81.353 -47.188,112.022c-31.59,30.794 -69.721,46.194 -114.4,46.194c-39.521,0 -75.009,-13.678 -106.471,-41.041c-34.629,-30.268 -51.944,-69.921 -51.944,-118.959Z" style="fill:#d02834;fill-rule:nonzero;"/><path d="M928.566,890.894l0,-326.941l223.247,233.56l0,-212.741l46.196,0l0,324.759l-223.246,-232.962l0,214.325l-46.197,0Z" style="fill:#d02834;fill-rule:nonzero;"/><path d="M1396.43,628.194l0,262.7l-46.2,0l0,-262.7l-70.381,0l0,-43.422l186.766,0l0,43.422l-70.185,0Z" style="fill:#d02834;fill-rule:nonzero;"/><path d="M92.941,1400.15l20.821,0c20.75,0 38,-2.178 51.744,-6.537c13.75,-4.629 26.172,-11.966 37.275,-22.01c22.735,-20.753 34.103,-47.781 34.103,-81.094c0,-33.571 -11.237,-60.8 -33.706,-81.681c-20.225,-18.637 -50.031,-27.959 -89.416,-27.959l-20.821,0l0,219.281Zm-46.197,43.422l0,-306.122l64.24,0c30.797,0 55.119,3.041 72.963,9.122c19.162,5.947 36.547,16.059 52.144,30.334c31.587,28.816 47.384,66.685 47.384,113.603c0,47.057 -16.456,85.125 -49.369,114.204c-16.522,14.54 -33.837,24.65 -51.947,30.334c-16.915,5.684 -40.909,8.525 -71.968,8.525l-63.447,0Z" style="fill:#d02834;fill-rule:nonzero;"/><path d="M413.494,1289.72c0,33.84 11.365,61.662 34.103,83.472c22.6,21.809 48.706,32.715 78.312,32.715c32.122,0 59.216,-11.106 81.291,-33.309c22.072,-22.469 33.109,-49.831 33.109,-82.085c0,-32.647 -10.906,-60.006 -32.712,-82.078c-21.678,-22.209 -48.513,-33.309 -80.497,-33.309c-31.853,0 -58.753,11.1 -80.694,33.309c-21.943,21.938 -32.912,49.035 -32.912,81.285Zm-46.594,-0.591c0,-43.091 15.797,-80.1 47.384,-111.028c31.46,-30.931 69.266,-46.397 113.413,-46.397c43.619,0 81.022,15.597 112.215,46.794c31.325,31.19 46.988,68.662 46.988,112.412c0,44.016 -15.725,81.36 -47.184,112.022c-31.591,30.797 -69.722,46.194 -114.4,46.194c-39.522,0 -75.01,-13.678 -106.472,-41.041c-34.628,-30.265 -51.944,-69.922 -51.944,-118.956Z" style="fill:#d02834;fill-rule:nonzero;"/><path d="M816.931,1289.72c0,33.84 11.369,61.662 34.1,83.472c22.606,21.809 48.71,32.715 78.319,32.715c32.116,0 59.212,-11.106 81.287,-33.309c22.072,-22.469 33.11,-49.831 33.11,-82.085c0,-32.647 -10.903,-60.006 -32.716,-82.078c-21.675,-22.209 -48.506,-33.309 -80.494,-33.309c-31.856,0 -58.753,11.1 -80.693,33.309c-21.941,21.938 -32.913,49.035 -32.913,81.285Zm-46.594,-0.591c0,-43.091 15.797,-80.1 47.388,-111.028c31.456,-30.931 69.259,-46.397 113.406,-46.397c43.619,0 81.025,15.597 112.219,46.794c31.328,31.19 46.987,68.662 46.987,112.412c0,44.016 -15.728,81.36 -47.184,112.022c-31.59,30.797 -69.725,46.194 -114.4,46.194c-39.522,0 -75.012,-13.678 -106.469,-41.041c-34.631,-30.265 -51.947,-69.922 -51.947,-118.956Z" style="fill:#d02834;fill-rule:nonzero;"/><path d="M1235.23,1278.02l14.672,0c43.75,0 65.625,-16.719 65.625,-50.16c0,-31.325 -21.281,-46.99 -63.841,-46.99l-16.456,0l0,97.15Zm57.497,35.097l94.772,130.456l-56.506,0l-87.435,-125.303l-8.328,0l0,125.303l-46.197,0l0,-306.122l54.128,0c40.444,0 69.657,7.603 87.635,22.8c19.825,16.919 29.737,39.256 29.737,67.016c0,21.678 -6.212,40.312 -18.637,55.909c-12.422,15.597 -28.813,25.575 -49.169,29.941Z" style="fill:#d02834;fill-rule:nonzero;"/><path d="M863.597,1854.46l-0.15,-38.104l-21.669,0l-0.037,37.663l-68.644,0.066l0,-90.079c0,-8.081 6.553,-14.634 14.631,-14.634c8.081,0 14.634,6.553 14.634,14.634l0,60.785l10.141,-0.01l0.041,-37.69l80.053,0l0.15,37.897l11.216,-0.082l0,-64.9c0,-8.081 6.55,-14.634 14.631,-14.634c8.081,0 14.634,6.553 14.634,14.634l0,93.96l-69.631,0.494Z" style="fill:#d02834;fill-rule:nonzero;"/><path d="M499.375,1698.83c-13.759,0 -27.519,5.247 -37.981,15.738c-10.125,10.143 -15.688,23.622 -15.672,37.953c0.019,14.331 5.615,27.8 15.759,37.922c10.131,10.106 23.588,15.672 37.894,15.672c0.022,0 0.044,0 0.066,0c14.328,-0.016 27.796,-5.613 37.918,-15.76c10.122,-10.144 15.688,-23.625 15.672,-37.959c-0.019,-14.331 -5.615,-27.797 -15.759,-37.919c-10.456,-10.431 -24.178,-15.647 -37.897,-15.647Zm-0.003,136.55c-22.11,0 -42.9,-8.6 -58.56,-24.219c-15.681,-15.643 -24.328,-36.456 -24.356,-58.603c-0.025,-22.15 8.575,-42.984 24.222,-58.662c32.291,-32.366 84.897,-32.431 117.259,-0.138c15.685,15.644 24.332,36.453 24.357,58.603c0.028,22.15 -8.575,42.982 -24.219,58.663c-15.641,15.678 -36.453,24.328 -58.603,24.356c-0.031,0 -0.066,0 -0.1,0Z" style="fill:#d02834;fill-rule:nonzero;"/><rect x="558.781" y="1737.58" width="411.069" height="29.266" style="fill:#d02834;fill-rule:nonzero;"/></svg>