<?xml version="1.0" encoding="utf-8"?>
<!-- Generator: Adobe Illustrator 21.1.0, SVG Export Plug-In . SVG Version: 6.00 Build 0)  -->
<svg version="1.1" id="Layer_1" xmlns:serif="http://www.serif.com/"
	 xmlns="http://www.w3.org/2000/svg" xmlns:xlink="http://www.w3.org/1999/xlink" x="0px" y="0px" viewBox="0 0 422.2 99.2"
	 style="enable-background:new 0 0 422.2 99.2;" xml:space="preserve">
<style type="text/css">
	.st0{fill:#D02834;}
</style>
<g>
	<path class="st0" d="M0,32v-32l21.8,22.8V2.1h4.5v31.7L4.5,11.1V32H0z"/>
	<path class="st0" d="M54,6.3H42v7.2h11.6v4.2H42v10h12V32H37.5V2.1H54L54,6.3L54,6.3z"/>
	<path class="st0" d="M65.3,2.1l7.8,20l8.1-21.4l7.8,21.4l8.3-20h4.9L88.9,33.9l-7.7-21.2l-8,21.2L60.4,2.1L65.3,2.1L65.3,2.1z"/>
	<path class="st0" d="M139.9,6.3h-10.4v7.2h10.1v4.2h-10.1V32h-4.5V2h14.9C139.9,2,139.9,6.3,139.9,6.3z"/>
	<path class="st0" d="M153.6,15.8h1.4c4.3,0,6.4-1.6,6.4-4.9c0-3.1-2.1-4.6-6.2-4.6h-1.6C153.6,6.3,153.6,15.8,153.6,15.8z
		 M159.2,19.2l9.3,12.7h-5.5l-8.5-12.2h-0.8V32h-4.5V2h5.3c4,0,6.8,0.7,8.6,2.2c1.9,1.7,2.9,3.8,2.9,6.5c0,2.1-0.6,3.9-1.8,5.5
		S161.2,18.8,159.2,19.2L159.2,19.2z"/>
	<path class="st0" d="M179.3,16.9c0,3.3,1.1,6,3.3,8.2c2.2,2.1,4.8,3.2,7.7,3.2c3.1,0,5.8-1.1,7.9-3.3c2.2-2.2,3.2-4.9,3.2-8
		c0-3.2-1.1-5.9-3.2-8c-2.1-2.2-4.7-3.3-7.9-3.3c-3.1,0-5.7,1.1-7.9,3.3C180.4,11.1,179.3,13.8,179.3,16.9L179.3,16.9z M174.8,16.9
		c0-4.2,1.5-7.8,4.6-10.9c3.1-3,6.8-4.5,11.1-4.5c4.3,0,7.9,1.5,11,4.6c3.1,3,4.6,6.7,4.6,11c0,4.3-1.5,8-4.6,10.9
		c-3.1,3-6.8,4.5-11.2,4.5c-3.9,0-7.3-1.3-10.4-4C176.5,25.5,174.8,21.6,174.8,16.9L174.8,16.9z"/>
	<path class="st0" d="M215.7,32V0l21.8,22.8V2h4.5v31.7L220.2,11V32H215.7z"/>
	<path class="st0" d="M261.4,6.3V32h-4.5V6.3H250V2h18.3v4.2H261.4z"/>
	<path class="st0" d="M295.7,27.6h2c2,0,3.7-0.2,5.1-0.6c1.3-0.5,2.6-1.2,3.6-2.2c2.2-2,3.3-4.7,3.3-7.9c0-3.3-1.1-5.9-3.3-8
		c-2-1.8-4.9-2.7-8.7-2.7h-2L295.7,27.6L295.7,27.6z M291.1,31.9V1.9h6.3c3,0,5.4,0.3,7.1,0.9c1.9,0.6,3.6,1.6,5.1,3
		c3.1,2.8,4.6,6.5,4.6,11.1c0,4.6-1.6,8.3-4.8,11.2c-1.6,1.4-3.3,2.4-5.1,3c-1.7,0.6-4,0.8-7,0.8H291.1L291.1,31.9z"/>
	<path class="st0" d="M327,16.8c0,3.3,1.1,6,3.3,8.2c2.2,2.1,4.8,3.2,7.7,3.2c3.1,0,5.8-1.1,7.9-3.3c2.2-2.2,3.2-4.9,3.2-8
		c0-3.2-1.1-5.9-3.2-8c-2.1-2.2-4.7-3.3-7.9-3.3c-3.1,0-5.7,1.1-7.9,3.3C328.1,11,327,13.7,327,16.8L327,16.8z M322.4,16.8
		c0-4.2,1.5-7.8,4.6-10.9c3.1-3,6.8-4.5,11.1-4.5c4.3,0,7.9,1.5,11,4.6c3.1,3,4.6,6.7,4.6,11c0,4.3-1.5,8-4.6,10.9
		c-3.1,3-6.8,4.5-11.2,4.5c-3.9,0-7.3-1.3-10.4-4C324.1,25.4,322.4,21.6,322.4,16.8L322.4,16.8z"/>
	<path class="st0" d="M366.4,16.8c0,3.3,1.1,6,3.3,8.2c2.2,2.1,4.8,3.2,7.7,3.2c3.1,0,5.8-1.1,7.9-3.3c2.2-2.2,3.2-4.9,3.2-8
		c0-3.2-1.1-5.9-3.2-8c-2.1-2.2-4.7-3.3-7.9-3.3c-3.1,0-5.7,1.1-7.9,3.3C367.5,11,366.4,13.7,366.4,16.8L366.4,16.8z M361.9,16.8
		c0-4.2,1.5-7.8,4.6-10.9c3.1-3,6.8-4.5,11.1-4.5c4.3,0,7.9,1.5,11,4.6c3.1,3,4.6,6.7,4.6,11c0,4.3-1.5,8-4.6,10.9
		c-3.1,3-6.8,4.5-11.2,4.5c-3.9,0-7.3-1.3-10.4-4C363.6,25.4,361.9,21.6,361.9,16.8L361.9,16.8z"/>
	<path class="st0" d="M407.3,15.7h1.4c4.3,0,6.4-1.6,6.4-4.9c0-3.1-2.1-4.6-6.2-4.6h-1.6L407.3,15.7L407.3,15.7z M412.9,19.1
		l9.3,12.7h-5.5l-8.5-12.2h-0.8v12.2h-4.5V1.9h5.3c4,0,6.8,0.7,8.6,2.2c1.9,1.7,2.9,3.8,2.9,6.5c0,2.1-0.6,3.9-1.8,5.5
		C416.5,17.7,414.9,18.7,412.9,19.1z"/>
	<path class="st0" d="M95.7,64.4h-1.2v-9.8h-2.6v-1.1h6.5v1.1h-2.7L95.7,64.4L95.7,64.4z"/>
	<path class="st0" d="M111.3,57.9v-4.4h1.2v10.9h-1.2V59h-5.6v5.4h-1.2V53.4h1.2v4.4H111.3z"/>
	<path class="st0" d="M119.6,53.4h5.7v1.1h-4.5v3.3h4.3v1.1h-4.3v4.3h4.5v1.1h-5.7V53.4z"/>
	<path class="st0" d="M149.7,55.8c-0.9-0.9-2.1-1.5-3.3-1.5c-2.4,0-4.4,2.1-4.4,4.5c0,2.4,2,4.5,4.4,4.5c1.2,0,2.4-0.6,3.3-1.5v1.5
		c-0.9,0.7-2.1,1.1-3.3,1.1c-3.1,0-5.7-2.5-5.7-5.6c0-3.1,2.6-5.7,5.7-5.7c1.2,0,2.3,0.3,3.3,1.1L149.7,55.8L149.7,55.8z"/>
	<path class="st0" d="M163.4,57.9v-4.4h1.2v10.9h-1.2V59h-5.6v5.4h-1.2V53.4h1.2v4.4H163.4z"/>
	<path class="st0" d="M172.9,59.9c0,0.8,0,1.7,0.5,2.4c0.5,0.7,1.4,1,2.2,1c0.8,0,1.6-0.4,2.1-1c0.6-0.7,0.5-1.7,0.5-2.5v-6.5h1.2
		v6.9c0,1.2-0.1,2.1-1,3c-0.8,0.8-1.8,1.2-2.9,1.2c-1,0-2.1-0.4-2.8-1.1c-1-0.9-1.1-1.9-1.1-3.2v-6.9h1.2V59.9z"/>
	<path class="st0" d="M187.7,58.5h0.4c1.4,0,2.8-0.3,2.8-2c0-1.8-1.3-2-2.8-2h-0.4L187.7,58.5L187.7,58.5z M187.7,64.4h-1.2V53.4
		h1.6c2.1,0,4,0.6,4,3c0,1.7-1.1,2.9-2.7,3l3.5,4.9h-1.5l-3.3-4.8h-0.3L187.7,64.4L187.7,64.4z"/>
	<path class="st0" d="M207.4,55.8c-0.9-0.9-2.1-1.5-3.3-1.5c-2.4,0-4.4,2.1-4.4,4.5c0,2.4,2,4.5,4.4,4.5c1.2,0,2.4-0.6,3.3-1.5v1.5
		c-0.9,0.7-2.1,1.1-3.3,1.1c-3.1,0-5.7-2.5-5.7-5.6c0-3.1,2.6-5.7,5.7-5.7c1.2,0,2.3,0.3,3.3,1.1C207.4,54.3,207.4,55.8,207.4,55.8z
		"/>
	<path class="st0" d="M221.2,57.9v-4.4h1.2v10.9h-1.2V59h-5.6v5.4h-1.2V53.4h1.2v4.4H221.2z"/>
	<rect x="238.7" y="53.4" class="st0" width="1.2" height="10.9"/>
	<path class="st0" d="M249.9,64.4h-1.2v-9.8H246v-1.1h6.5v1.1h-2.7V64.4z"/>
	<path class="st0" d="M278,58.9c0,1.5-0.1,2.7-1.1,3.9c-1,1.2-2.5,1.8-4.1,1.8c-3.1,0-5.6-2.6-5.6-5.6c0-3.1,2.6-5.7,5.7-5.7
		c1.9,0,3.5,0.9,4.6,2.4l-0.9,0.8c-0.9-1.3-2.1-2.1-3.8-2.1c-2.5,0-4.5,2.1-4.5,4.6c0,1.2,0.5,2.3,1.3,3.1c0.8,0.8,2,1.4,3.1,1.4
		c1.9,0,3.9-1.4,3.9-3.4h-3.3v-1.1L278,58.9L278,58.9z"/>
	<path class="st0" d="M285.7,59.9c0,0.8,0,1.7,0.5,2.4c0.5,0.7,1.4,1,2.2,1c0.8,0,1.6-0.4,2.1-1c0.6-0.7,0.5-1.7,0.5-2.5v-6.5h1.2
		v6.9c0,1.2-0.1,2.1-1,3c-0.8,0.8-1.8,1.2-2.9,1.2c-1,0-2.1-0.4-2.8-1.1c-1-0.9-1.1-1.9-1.1-3.2v-6.9h1.2L285.7,59.9L285.7,59.9z"/>
	<rect x="299.3" y="53.4" class="st0" width="1.2" height="10.9"/>
	<path class="st0" d="M308.8,63.2h3v1.1h-4.2V53.4h1.2V63.2z"/>
	<path class="st0" d="M319.9,63.2c1.3,0,2.5-0.2,3.5-1.1c0.9-0.8,1.4-2,1.4-3.2c0-1.2-0.5-2.5-1.4-3.3c-1-0.9-2.1-1.1-3.4-1.1H319
		v8.7H319.9z M317.8,53.4h2.1c1.6,0,3,0.2,4.3,1.3c1.2,1.1,1.8,2.5,1.8,4.2c0,1.6-0.6,3-1.8,4.1c-1.3,1.2-2.6,1.4-4.3,1.4h-2
		L317.8,53.4L317.8,53.4z"/>
	<path class="st0" d="M225.3,99.2l0-3.7h-2.1l0,3.7l-6.7,0v-8.8c0-0.8,0.6-1.4,1.4-1.4c0.8,0,1.4,0.6,1.4,1.4v5.9l1,0l0-3.7h7.8
		l0,3.7l1.1,0V90c0-0.8,0.6-1.4,1.4-1.4c0.8,0,1.4,0.6,1.4,1.4v9.2L225.3,99.2L225.3,99.2z"/>
	<path class="st0" d="M189.7,84c-1.3,0-2.7,0.5-3.7,1.5c-1,1-1.5,2.3-1.5,3.7c0,1.4,0.5,2.7,1.5,3.7c1,1,2.3,1.5,3.7,1.5
		c0,0,0,0,0,0c1.4,0,2.7-0.5,3.7-1.5c1-1,1.5-2.3,1.5-3.7c0-1.4-0.5-2.7-1.5-3.7C192.4,84.5,191,84,189.7,84L189.7,84z M189.7,97.3
		c-2.2,0-4.2-0.8-5.7-2.4c-1.5-1.5-2.4-3.6-2.4-5.7c0-2.2,0.8-4.2,2.4-5.7c3.2-3.2,8.3-3.2,11.5,0c1.5,1.5,2.4,3.6,2.4,5.7
		c0,2.2-0.8,4.2-2.4,5.7C193.9,96.5,191.9,97.3,189.7,97.3C189.7,97.3,189.7,97.3,189.7,97.3L189.7,97.3z"/>
	<rect x="195.5" y="87.8" class="st0" width="40.2" height="2.9"/>
</g>
</svg>
