<?xml version="1.0" encoding="UTF-8" standalone="no"?>
<svg
   xmlns:dc="http://purl.org/dc/elements/1.1/"
   xmlns:cc="http://creativecommons.org/ns#"
   xmlns:rdf="http://www.w3.org/1999/02/22-rdf-syntax-ns#"
   xmlns:svg="http://www.w3.org/2000/svg"
   xmlns="http://www.w3.org/2000/svg"
   xmlns:sodipodi="http://sodipodi.sourceforge.net/DTD/sodipodi-0.dtd"
   xmlns:inkscape="http://www.inkscape.org/namespaces/inkscape"
   width="110.293"
   height="70.929001"
   id="svg2"
   version="1.1"
   inkscape:version="0.91 r13725"
   sodipodi:docname="vision100-it-logo.svg">
  <metadata
     id="metadata12">
    <rdf:RDF>
      <cc:Work
         rdf:about="">
        <dc:format>image/svg+xml</dc:format>
        <dc:type
           rdf:resource="http://purl.org/dc/dcmitype/StillImage" />
        <dc:title></dc:title>
      </cc:Work>
    </rdf:RDF>
  </metadata>
  <defs
     id="defs10" />
  <sodipodi:namedview
     pagecolor="#ffffff"
     bordercolor="#666666"
     borderopacity="1"
     objecttolerance="10"
     gridtolerance="10"
     guidetolerance="10"
     inkscape:pageopacity="0"
     inkscape:pageshadow="2"
     inkscape:window-width="1366"
     inkscape:window-height="705"
     id="namedview8"
     showgrid="false"
     fit-margin-top="0"
     fit-margin-left="0"
     fit-margin-right="0"
     fit-margin-bottom="0"
     inkscape:zoom="1.9855628"
     inkscape:cx="-32.096533"
     inkscape:cy="36.046498"
     inkscape:window-x="239"
     inkscape:window-y="1192"
     inkscape:window-maximized="1"
     inkscape:current-layer="svg2" />
  <path
     d="m 0,0.434 6.424,0 4.285,22.937 4.44,-22.937 5.25,0 L 13.558,30.672 6.698,30.519 0.002,0.434 Z m 22.928,0 6.125,0 0,30.085 -6.125,0 0,-30.085 z m 27.944,6.545 -5.063,2.095 c -0.72,-2.483 -2.04,-3.725 -3.96,-3.725 -0.89,0 -1.6,0.275 -2.13,0.826 -0.52,0.55 -0.78,1.195 -0.78,1.928 0,0.854 0.31,1.534 0.93,2.04 0.62,0.507 1.92,1.172 3.89,1.993 1.8,0.722 3.21,1.435 4.24,2.14 1.03,0.704 1.86,1.664 2.49,2.875 0.64,1.214 0.95,2.62 0.95,4.22 0,2.81 -0.89,5.11 -2.68,6.91 -1.79,1.8 -4.19,2.7 -7.19,2.7 -5.05,0 -8.273,-2.755 -9.68,-8.265 l 5.35,-1.652 c 0.65,3.026 2.14,4.54 4.47,4.54 1.06,0 1.92,-0.297 2.58,-0.894 0.66,-0.59 0.99,-1.37 0.99,-2.34 0,-0.73 -0.23,-1.39 -0.69,-1.97 C 44.126,19.82 43.066,19.21 41.404,18.56 39.27,17.74 37.678,17 36.63,16.33 c -1.05,-0.67 -1.91,-1.62 -2.594,-2.86 -0.68,-1.24 -1.02,-2.65 -1.02,-4.24 0,-2.7 0.807,-4.92 2.418,-6.64 C 37.048,0.86 39.181,0 41.834,0 46.679,0 49.702,2.336 50.9,7.01 Z m 4.328,-6.545 6.124,0 0,30.085 -6.124,0 0,-30.085 z m 30.616,15.108 c 0,10.345 -3.37,15.517 -10.104,15.517 -3.35,0 -5.872,-1.32 -7.574,-3.958 -1.7,-2.635 -2.552,-6.487 -2.552,-11.56 0,-10.328 3.368,-15.493 10.105,-15.493 3.293,0 5.805,1.29 7.53,3.88 1.732,2.58 2.595,6.45 2.595,11.61 z m -6.45,0 c 0,-4.054 -0.292,-6.756 -0.878,-8.1 -0.584,-1.344 -1.518,-2.016 -2.797,-2.016 -1.268,0 -2.19,0.676 -2.776,2.027 -0.584,1.352 -0.88,4.048 -0.88,8.088 0,3.97 0.292,6.647 0.87,8.045 0.58,1.397 1.507,2.092 2.786,2.092 1.266,0 2.195,-0.67 2.788,-2.01 0.59,-1.34 0.89,-4.05 0.89,-8.14 z m 10.497,-15.108 6.8,0 7.16,18.69 0,-18.69 4.74,0 0,30.085 -5.472,0 -8.493,-21.775 0,21.775 -4.735,0 0,-30.085 z m -78.552,34.655 4.85,0 0,24.438 4.786,0 0,4.724 -16.019,0 0,-4.724 4.87,0 0,-17.07 c -1.44,1.497 -3.062,2.704 -4.87,3.622 l 0,-5.655 c 2.584,-1.354 4.708,-3.135 6.375,-5.335 z m 30.435,14.357 c 0,5.225 -0.752,9.072 -2.257,11.544 -1.5,2.48 -3.97,3.71 -7.4,3.71 -3.54,0 -6.04,-1.28 -7.48,-3.84 -1.44,-2.56 -2.17,-6.12 -2.17,-10.68 0,-5.25 0.75,-9.11 2.26,-11.57 1.51,-2.46 3.97,-3.69 7.4,-3.69 3.55,0 6.04,1.28 7.49,3.848 1.45,2.568 2.17,6.13 2.17,10.705 z m -6.693,0.35 c 0,-4.38 -0.2,-7.19 -0.596,-8.428 -0.4,-1.24 -1.19,-1.86 -2.36,-1.86 -1.07,0 -1.83,0.52 -2.29,1.56 -0.46,1.04 -0.69,3.95 -0.69,8.71 0,4.71 0.22,7.6 0.67,8.67 0.44,1.07 1.21,1.61 2.3,1.61 1.05,0 1.8,-0.51 2.26,-1.52 0.46,-1.01 0.69,-3.93 0.69,-8.77 z m 28.23,-0.35 c 0,5.225 -0.752,9.072 -2.255,11.544 -1.505,2.48 -3.97,3.71 -7.402,3.71 -3.544,0 -6.04,-1.28 -7.487,-3.84 -1.44,-2.56 -2.17,-6.12 -2.17,-10.68 0,-5.25 0.76,-9.11 2.26,-11.57 1.51,-2.46 3.97,-3.69 7.4,-3.69 3.55,0 6.04,1.28 7.49,3.848 1.45,2.563 2.17,6.13 2.17,10.705 z m -6.692,0.35 c 0,-4.38 -0.198,-7.19 -0.595,-8.428 -0.397,-1.24 -1.184,-1.86 -2.358,-1.86 -1.062,0 -1.826,0.52 -2.285,1.56 -0.462,1.04 -0.69,3.95 -0.69,8.71 0,4.71 0.223,7.6 0.668,8.67 0.446,1.07 1.215,1.61 2.308,1.61 1.05,0 1.81,-0.51 2.27,-1.52 0.46,-1.01 0.69,-3.93 0.69,-8.77 z"
     id="path4"
     inkscape:connector-curvature="0"
     style="fill:#ef3b24" />
  <path
     d="m 108.298,40.005 0,0.66 -6.01,0 0,23.89 -6.458,0 0,-23.89 -5.86,0 0,-5.513 15.232,0 c -4.15,-4.93 -10.47,-8.077 -17.547,-8.077 -12.502,0 -22.637,9.818 -22.637,21.928 0,12.11 10.135,21.926 22.637,21.926 12.502,0 22.638,-9.816 22.638,-21.926 0,-3.208 -0.717,-6.252 -1.995,-8.998 z m -24.494,24.55 -6.462,0 0,-29.403 6.462,0 0,29.4 z m 8.698,0 -6.01,0 0,-6.506 6.01,0 0,6.504 z"
     id="path6"
     inkscape:connector-curvature="0"
     style="fill:#ef3b24" />
</svg>
